<svg width="70" height="70" xmlns="http://www.w3.org/2000/svg" xmlns:xlink="http://www.w3.org/1999/xlink" xml:space="preserve" overflow="hidden"><defs><clipPath id="clip0"><rect x="374" y="256" width="70" height="70"/></clipPath><clipPath id="clip1"><rect x="375" y="257" width="68" height="69"/></clipPath><clipPath id="clip2"><rect x="375" y="257" width="68" height="69"/></clipPath><clipPath id="clip3"><rect x="375" y="257" width="68" height="69"/></clipPath></defs><g clip-path="url(#clip0)" transform="translate(-374 -256)"><g clip-path="url(#clip1)"><g clip-path="url(#clip2)"><g clip-path="url(#clip3)"><path d="M35.3104 57.5705 35.3104 51.7275C35.9767 52.3924 36.7267 52.9677 37.5417 53.4388 37.7365 53.6251 38.5163 54.5062 38.1522 56.4237 37.9927 57.1636 38.4507 57.8962 39.1857 58.077 39.2624 58.0904 39.3401 58.0973 39.418 58.0975 40.0392 58.0963 40.5743 57.6596 40.7001 57.0513 40.8532 56.3384 40.9009 55.607 40.8418 54.8802 41.3228 55.0432 41.8051 55.1962 42.2847 55.3477 42.7883 55.5071 43.287 55.6644 43.7778 55.8315 43.447 56.9649 43.4081 58.8774 45.2547 61.443 45.6781 62.0309 46.4979 62.1643 47.0858 61.741 47.1523 61.6931 47.2142 61.6391 47.2706 61.5797 47.7002 61.0966 47.7313 60.3782 47.345 59.8598 46.2875 58.3723 46.1592 57.387 46.2216 56.8423 47.5322 57.506 48.6861 58.4417 49.606 59.5871 50.0605 60.1503 50.8855 60.2384 51.4487 59.7839 51.5062 59.7376 51.5596 59.6864 51.6085 59.631 52.0345 59.1213 52.0278 58.3779 51.5929 57.8758 49.0167 54.7244 45.8603 53.7278 43.0737 52.8466 40.081 51.9045 37.4708 51.0708 35.6511 47.8125 35.4311 47.4233 35.3138 46.9845 35.3104 46.5375L35.3104 44.7907C35.3607 40.1455 35.2481 39.785 34.9789 38.1926 35.298 37.6831 35.7299 37.2537 36.2412 36.9375 37.8474 40.48 42.0213 42.0498 45.5639 40.4436 45.7621 40.3537 45.956 40.2547 46.1451 40.1469 51.5518 37.167 52.2233 31.6469 52.2233 25.4575 52.2233 25.4575 46.364 27.0796 42.6544 26.9684 38.7606 26.9688 35.604 30.1253 35.6037 34.0191 35.6037 34.0637 35.6093 34.1063 35.61 34.1509 35.1935 34.3783 34.7945 34.6367 34.4165 34.9237 33.6118 29.9788 33.1344 24.8752 34.7487 19.2851 35.4662 19.0195 36.2137 18.8434 36.9743 18.7609 37.1306 20.3852 38.3868 21.6869 40.0045 21.901 43.0582 22.3536 44.9969 20.3617 46.8754 17.8989 45.3701 17.3003 43.9392 16.5294 42.6112 15.6017 41.1622 14.5025 39.1137 14.6908 37.8895 16.036 37.2004 16.0278 36.5122 16.0886 35.8353 16.2173 36.7121 14.1589 37.793 12.1937 39.0617 10.3509 40.9571 10.7663 42.8304 9.56668 43.2459 7.67132 43.3009 7.42029 43.3282 7.16394 43.3273 6.90696 43.3941 5.28917 43.6477 3.68452 44.0831 2.125 40.9877 2.125 38.228 2.46075 36.7384 5.16446 36.0838 6.30968 36.1268 7.72522 36.8496 8.82867 36.0514 9.99692 35.3183 11.2083 34.6538 12.4575 34.391 12.1479 34.1091 11.8419 33.7981 11.5366 33.8217 11.3946 33.8364 11.2512 33.842 11.1074 33.8436 9.16038 32.2665 7.58072 30.3195 7.57917 30.3186 7.57917 30.3176 7.57917 30.3167 7.57917 28.6981 7.51258 27.0928 7.259 25.5326 6.82338 25.5326 9.91879 25.8683 12.6778 28.572 14.1681 29.7766 14.8583 31.2753 14.7702 32.3907 13.9435 32.7465 14.3326 33.0687 14.7511 33.354 15.1945 31.4857 19.6792 30.7007 24.5411 31.0625 29.3859 30.5462 29.1231 30.0135 28.8596 29.4652 28.6068 30.1144 24.791 27.5472 21.1716 23.7315 20.5225 23.3283 20.4539 22.9198 20.4208 22.5108 20.4234 18.8013 20.5346 12.942 18.9125 12.942 18.9125 12.942 25.1033 13.6135 30.622 19.0202 33.6019 22.334 35.4927 26.5509 34.3991 28.5281 31.1362 28.8887 31.3076 29.2478 31.4847 29.6119 31.6689 30.1637 31.9465 30.7452 32.2277 31.3522 32.5005 31.5959 34.4668 31.9253 36.3736 32.2575 38.2266 32.5313 39.9405 32.6756 41.6725 32.6889 43.4081 32.6929 44.1016 32.5879 44.7914 32.3779 45.4523 31.0852 49.4381 29.1954 50.2067 26.4541 51.3117 22.734 52.5924 19.4898 54.9711 17.1495 58.1336 16.7386 58.6521 16.7601 59.391 17.2005 59.8846 17.6991 60.4091 18.5286 60.43 19.0531 59.9313 19.1033 59.8836 19.1496 59.832 19.1916 59.777 20.1274 58.5242 21.2208 57.3974 22.445 56.4244 22.5925 57.4223 22.5185 58.4404 22.2282 59.4065 22.0288 60.07 22.3567 60.7778 22.9918 61.0548 23.1443 61.1139 23.3064 61.1444 23.4699 61.1447 24.0544 61.1441 24.568 60.7567 24.7293 60.1949 25.265 58.4822 25.282 56.6493 24.7782 54.927 25.582 54.5163 26.4058 54.1463 27.2467 53.8185 27.292 54.5838 27.4887 55.3326 27.8255 56.0214 28.1371 56.675 28.9197 56.9521 29.5733 56.6405 29.658 56.6 29.7382 56.5506 29.8123 56.4931 30.3011 56.0808 30.443 55.3868 30.1552 54.8158 29.7436 54.1053 29.7349 53.2308 30.1325 52.5123 31.1064 51.9764 31.973 51.2653 32.6889 50.4149L32.6889 56.7552C30.9949 57.8731 29.4611 59.2167 28.13 60.7488 27.6533 61.2939 27.7089 62.1222 28.254 62.599 28.7991 63.0757 29.6275 63.0201 30.1042 62.475 30.9043 61.5752 31.7686 60.7346 32.6903 59.9597L32.6903 64.7346C32.6756 65.3932 33.1353 65.9675 33.7811 66.0974 34.4955 66.2179 35.1724 65.7365 35.2928 65.022 35.305 64.9502 35.3111 64.8775 35.3111 64.8047L35.3111 61.1214C36.1237 61.6569 36.9042 62.2397 37.6486 62.8667 38.2037 63.331 39.0302 63.2574 39.4945 62.7022 39.9557 62.1507 39.8865 61.3306 39.3394 60.8643 38.1136 59.7917 36.7616 58.8726 35.3132 58.1272Z" fill="#589203" fill-rule="nonzero" fill-opacity="1" transform="matrix(1 0 0 1.01471 375 257)"/></g></g></g></g></svg>